# xmcd CD database file
#
# Track frame offsets:
#	150
#	19230
#	38880
#	60845
#	83327
#	103835
#	127497
#	148282
#	163482
#	184495
#	204622
#	222807
#	242127
#	258460
#
# Disc length: 3734 seconds
#
# Revision: 0
# Processed by: cddbd v1.5.1PL2 Copyright (c) Steve Scherf et al.
# Submitted via: CDex 1.51
#
DISCID=d80e940e
DTITLE=the fantastic designs - SOUND from NEW BLOW
DYEAR=2001
DGENRE=Rock
TTITLE0=Blow out heavy cloud
TTITLE1=Bedroom surfers
TTITLE2=rising sun
TTITLE3=Air groove
TTITLE4=Too young to give up
TTITLE5=Statement that's "FUNNY"
TTITLE6=Decided to go this way
TTITLE7=Benjamin
TTITLE8=Vexation
TTITLE9=Don't stop YOUNG MASTER
TTITLE10=Rime sugar
TTITLE11=Shout at the BLUES
TTITLE12=Sound from new blow
TTITLE13=Wind in my mind
EXTD=YEAR: 2001
EXTT0=
EXTT1=
EXTT2=
EXTT3=
EXTT4=
EXTT5=
EXTT6=
EXTT7=
EXTT8=
EXTT9=
EXTT10=
EXTT11=
EXTT12=
EXTT13=
PLAYORDER=
